<?xml version="1.0" encoding="utf-8"?>
<svg version="1.1" xmlns="http://www.w3.org/2000/svg" xmlns:xlink="http://www.w3.org/1999/xlink" x="0px" y="0px" viewBox="0 0 20 20" style="enable-background:new 0 0 20 20;" xml:space="preserve">
	<g>
		<g>
			<path stroke-width="0.4" stroke="#666" fill="#666" d="M17,9.3V6.1c0-1-0.8-1.8-1.8-1.8H4.7C3.7,4.3,3,5.1,3,6.1v3.2C2.1,9.4,1.5,10.2,1.5,11v2.1v1.4v1.4
			c0,0.2,0.2,0.4,0.4,0.4s0.4-0.2,0.4-0.4v-1.1h15.5v1.1c0,0.2,0.2,0.4,0.4,0.4s0.4-0.2,0.4-0.4v-1.4v-1.4V11
			C18.5,10.2,17.9,9.4,17,9.3z M3.7,6.1C3.7,5.5,4.1,5,4.7,5h10.6c0.6,0,1.1,0.5,1.1,1.1v3.2h-1c0.1-0.2,0.1-0.4,0-0.6l-0.4-1.4
			c-0.1-0.5-0.5-0.8-1-0.8h-2.3c-0.6,0-1.1,0.5-1.1,1.1v1.4c0,0.1,0,0.2,0.1,0.4H9.2c0-0.1,0.1-0.2,0.1-0.4V7.5
			c0-0.6-0.5-1.1-1.1-1.1H6c-0.5,0-0.9,0.3-1,0.8L4.6,8.6c-0.1,0.2,0,0.4,0,0.6h-1V6.1z M14.7,9.1c-0.1,0.1-0.2,0.1-0.3,0.1h-2.6
			c-0.2,0-0.4-0.2-0.4-0.4V7.5c0-0.2,0.2-0.4,0.4-0.4H14c0.2,0,0.3,0.1,0.3,0.3l0.4,1.4C14.8,8.9,14.7,9,14.7,9.1z M8.6,7.5v1.4
			c0,0.2-0.2,0.4-0.4,0.4H5.6c-0.1,0-0.2,0-0.3-0.1S5.2,8.9,5.3,8.8l0.4-1.4c0-0.2,0.2-0.3,0.3-0.3h2.3C8.4,7.1,8.6,7.3,8.6,7.5z
			 M17.8,14.2H2.2v-0.7h15.5L17.8,14.2L17.8,14.2z M17.8,12.8H2.2V11c0-0.6,0.5-1.1,1.1-1.1h2.3h2.6h3.5h2.6h2.3
			c0.6,0,1.1,0.5,1.1,1.1L17.8,12.8L17.8,12.8z" />
		</g>
	</g>
</svg>
