<?xml version="1.0" encoding="utf-8"?>
<svg version="1.1" xmlns="http://www.w3.org/2000/svg" xmlns:xlink="http://www.w3.org/1999/xlink" x="0px" y="0px" viewBox="0 0 20 20" style="enable-background:new 0 0 20 20;" xml:space="preserve">
	<path stroke-width="0.4" fill="#666" stroke="#666" d="M7,2.6H5.4l-0.5,0H4.1C4,2.6,3.9,2.7,3.9,2.8l-0.3,2H2.1c-0.1,0-0.2,0-0.2,0.1c0,0.1-0.1,0.1-0.1,0.2l0.3,1.3
	c0,0,0,0,0,0l0.4,2c0.1,0.6,0.7,1,1.3,1h10.7c0.6,0,1.1-0.3,1.4-0.8l2.2-3.5c0.1-0.1,0.1-0.2,0-0.3c0-0.1-0.1-0.1-0.2-0.1h-4.2
	l-1.1-2.5c-0.1-0.3-0.5-0.6-0.9-0.6h-1.1h-0.5H8.7C8.5,1.7,8.4,1.8,8.4,2v0.6H7.6L7,2.6z M12.7,5 M4.1,4.8l0.2-1.7h0.8
	c0,0,0.1,0,0.1,0l2.1,0c0,0,0,0,0,0c0,0-2.2,0-2.2,0l3.7,0c0.1,0,0.1-0.1,0.1-0.2V2.2h2.8c0.2,0,0.3,0.1,0.4,0.3L12.4,3l0.5,1.1
	l0.5,1.1c0,0,0,0,0,0c0,0,0,0,0,0c0,0,0,0,0,0c0,0,0,0,0,0c0,0,0,0,0,0c0,0,0,0,0,0c0,0,0,0,0,0c0,0,0,0,0,0c0,0,0,0,0,0
	c0,0,0,0,0,0c0,0,0,0,0,0c0,0,0,0,0,0c0,0,0,0,0,0c0,0,0,0,0,0c0,0,0,0,0,0c0,0,0,0,0,0c0,0,0,0,0,0h3.9l-2,3.1
	c-0.2,0.3-0.6,0.5-0.9,0.5H3.8C3.4,8.9,3.1,8.7,3,8.3L2.7,6.6L2.6,6.1L2.4,5.3h1.4c0,0,0,0,0,0c0,0,0,0,0,0L4.1,4.8z" />
	<path fill="#666" d="M9.8,17.3l0-4.1l1.2,0l0,4.1L9.8,17.3z M15.7,14.6l-3.6,0l0,1.2l3.6,0l-1.6,1.6l0.8,0.8l3-3l-3.1-3.1L14,12.9L15.7,14.6z
	 M5.1,15.8l3.5,0l0-1.2l-3.5,0L6.8,13l-0.8-0.8l-3.1,3.1l3.1,3l0.8-0.8L5.1,15.8z" />
</svg>
