<?xml version="1.0" encoding="utf-8"?>
<svg version="1.1" xmlns="http://www.w3.org/2000/svg" xmlns:xlink="http://www.w3.org/1999/xlink" x="0px" y="0px" viewBox="0 0 20 20" style="enable-background:new 0 0 20 20;" xml:space="preserve">
	<g>
		<g>
			<path fill="#666" d="M18.1,11.8c-0.6-1.2-1.6-2.1-2.9-2.5c-0.8-0.2-1.5-0.2-2-0.2c-0.1-0.3-0.3-0.5-0.5-0.8c0.4-0.5,0.9-0.7,1.4-1
			c0.8-0.4,1.7-0.8,2.1-2c0.2-0.6,0.1-1.4-0.4-2.1c-0.4-0.6-1.1-1.1-1.9-1.5c-1-0.5-2.1-0.7-3.2-0.6C9.7,1.4,8.7,2.1,8,3.1
			C7.3,4.3,7,5.6,7.3,6.9c0.2,0.8,0.5,1.4,0.8,1.8C8,8.9,7.8,9.2,7.7,9.4C7.1,9.4,6.7,9.1,6.1,8.7C5.4,8.2,4.6,7.6,3.4,7.8
			C2.7,8,2.1,8.5,1.8,9.3c-0.3,0.7-0.4,1.5-0.4,2.4c0.1,1.1,0.5,2.2,1.1,3c0.8,1,1.8,1.5,3.1,1.6c0.1,0,0.2,0,0.3,0
			c1.3,0,2.4-0.4,3.3-1.3c0.6-0.6,0.9-1.2,1.1-1.6c0.1,0,0.2,0,0.3,0c0.2,0,0.4,0,0.6-0.1c0.3,0.6,0.2,1.1,0.2,1.7
			C11.2,16,11.1,17,12,18c0.4,0.5,1,0.7,1.7,0.7c0.1,0,0.2,0,0.4,0c0.7-0.1,1.5-0.4,2.3-0.9c1-0.6,1.7-1.5,2.1-2.4
			C18.8,14.2,18.7,13,18.1,11.8z M9,3.8c1.1-1.8,3.2-1.6,4.6-0.9c1.2,0.6,2,1.6,1.7,2.2c-0.3,0.7-0.8,1-1.5,1.3
			c-0.6,0.3-1.3,0.6-1.9,1.3c-0.4-0.2-0.9-0.3-1.4-0.3C10,7.4,9.4,7.6,9,7.9C8.8,7.5,8.5,7.1,8.4,6.6C8.2,5.6,8.4,4.7,9,3.8z
			 M8.3,14.2c-0.7,0.7-1.6,1-2.7,0.9c-2.1-0.1-3-2-3.1-3.5c-0.1-1.3,0.4-2.5,1-2.6c0.8-0.1,1.3,0.2,1.9,0.7c0.6,0.4,1.2,0.8,2.1,0.9
			c0.1,1.1,0.7,2,1.6,2.5C9,13.4,8.7,13.8,8.3,14.2z M10.6,12.3c-1,0-1.9-0.8-1.9-1.9c0-1,0.8-1.9,1.9-1.9s1.9,0.8,1.9,1.9
			C12.4,11.4,11.6,12.3,10.6,12.3z M15.6,16.8c-1.1,0.7-2.3,0.9-2.8,0.4c-0.5-0.6-0.5-1.2-0.4-2c0.1-0.7,0.1-1.5-0.2-2.3
			c0.8-0.5,1.4-1.5,1.4-2.5c0,0,0-0.1,0-0.1c0.4,0,0.9,0,1.4,0.1c0.9,0.3,1.7,0.9,2.2,1.9C18.1,14.2,16.9,15.9,15.6,16.8z" />
		</g>
	</g>
</svg>
