<?xml version="1.0" encoding="utf-8"?>
<svg version="1.1" xmlns="http://www.w3.org/2000/svg" xmlns:xlink="http://www.w3.org/1999/xlink" x="0px" y="0px" viewBox="0 0 20 20" style="enable-background:new 0 0 20 20;" xml:space="preserve">
	<path fill="#666" d="M13.1,11.7c0,0.3-0.3,0.5-0.6,0.5c-0.3,0-0.6-0.2-0.6-0.5c0-0.3,0.3-0.5,0.6-0.5C12.8,11.1,13.1,11.4,13.1,11.7z" />
	<path fill="#666" d="M3.6,10.8v4.7c0,0.3,0.3,0.5,0.6,0.5h5.2v2.6c0,0.2,0.1,0.4,0.3,0.4c0.2,0.1,0.4,0.1,0.6,0l5.8-3.1
	c0.2-0.1,0.3-0.3,0.3-0.4V2c0-0.3-0.3-0.5-0.6-0.5c0,0,0,0,0,0H4.2C3.9,1.4,3.6,1.7,3.6,2v5.7V10.8z M4.8,10.3L4.8,10.3
	c0-0.4-0.3-0.6-0.6-0.6 M4.2,8.7c0.3,0,0.6-0.2,0.6-0.5V8.1 M15.2,15.2l-4.7,2.5V5.3l4.7-2.5V15.2z M4.8,6.9V2.5h9l-4,2.1
	C9.5,4.7,9.4,4.9,9.4,5.1v9.9H4.8v-3.4V6.9z" />
</svg>
