<?xml version="1.0" encoding="utf-8"?>
<svg version="1.1" xmlns="http://www.w3.org/2000/svg" xmlns:xlink="http://www.w3.org/1999/xlink" x="0px" y="0px" viewBox="0 0 20 20" enable-background="new 0 0 20 20" xml:space="preserve">
	<path fill="#666" d="M9.7,18.5v-4.1h1.2v4.1H9.7z M15.6,15.8H12V17h3.6L14,18.6l0.8,0.8l3-3l-3.1-3.1l-0.8,0.8L15.6,15.8z M5,17h3.5v-1.2H5
	l1.7-1.6l-0.8-0.8l-3.1,3.1l3.1,3l0.8-0.8L5,17z" />
	<g>
		<path stroke-width="0.2" stroke="#666" fill="#666" d="M6.9,1H5.6v4.8h0L3.9,6.7l0,0.3c0,0,0.1,0.8,0.5,1.9c0.3,0.9,0.8,1.7,1.4,2.3c0,0,0,0,0,0c-0.2,0-0.3-0.1-0.5-0.2
		c-0.2-0.2-0.5-0.4-1-0.4s-0.8,0.2-1,0.4c-0.2,0.1-0.3,0.2-0.5,0.2v0.9c0.5,0,0.8-0.2,1-0.4c0.2-0.1,0.3-0.2,0.5-0.2
		c0.2,0,0.3,0.1,0.5,0.2c0.2,0.2,0.5,0.4,1,0.4s0.8-0.2,1-0.4c0.2-0.1,0.3-0.2,0.5-0.2c0.2,0,0.3,0.1,0.5,0.2c0.2,0.2,0.5,0.4,1,0.4
		c0.5,0,0.8-0.2,1-0.4c0.2-0.1,0.3-0.2,0.5-0.2s0.3,0.1,0.5,0.2c0.2,0.2,0.5,0.4,1,0.4c0.5,0,0.8-0.2,1-0.4c0.2-0.1,0.3-0.2,0.5-0.2
		s0.3,0.1,0.5,0.2c0.2,0.2,0.5,0.4,1,0.4c0.5,0,0.8-0.2,1-0.4c0.2-0.1,0.3-0.2,0.5-0.2s0.3,0.1,0.5,0.2c0.2,0.2,0.5,0.4,1,0.4v-0.9
		c-0.2,0-0.3-0.1-0.5-0.2c-0.2-0.2-0.5-0.4-1-0.4c-0.5,0-0.8,0.2-1,0.4c-0.2,0.1-0.3,0.2-0.5,0.2c0,0,0,0-0.1,0
		c0.6-0.7,1-1.5,1.4-2.3c0.4-1,0.5-1.8,0.5-1.9l0-0.3l-1.7-0.9V1H6.9 M15.1,1H5.6 M6.5,1.9h7.7v3.4l-3.9-2.1L6.5,5.3V1.9z M9.3,11
		c-0.2,0.1-0.3,0.2-0.5,0.2c-0.2,0-0.3-0.1-0.5-0.2c-0.2-0.2-0.5-0.4-1-0.4c-0.3,0-0.5,0.1-0.7,0.2C5.9,10,5.5,9.2,5.3,8.6
		C5,8,4.9,7.5,4.9,7.2l5-2.7v6.2C9.6,10.7,9.4,10.9,9.3,11z M12.4,11c-0.2,0.1-0.3,0.2-0.5,0.2s-0.3-0.1-0.5-0.2
		c-0.1-0.1-0.3-0.3-0.6-0.3V4.5l5,2.7c-0.1,0.3-0.2,0.8-0.4,1.4c-0.2,0.6-0.7,1.4-1.3,2.2c-0.2-0.1-0.4-0.2-0.7-0.2
		C12.9,10.6,12.6,10.8,12.4,11z" />
	</g>
</svg>
