<?xml version="1.0" encoding="utf-8"?>
<svg version="1.1" xmlns="http://www.w3.org/2000/svg" xmlns:xlink="http://www.w3.org/1999/xlink" x="0px" y="0px" viewBox="0 0 20 20" style="enable-background:new 0 0 20 20;" xml:space="preserve">
	<g>
		<path d="M10,18.8c-3.5,0-6.4-2.9-6.4-6.4C3.6,9,8.9,2.2,9.5,1.5C9.6,1.3,9.8,1.2,10,1.2c0.2,0,0.4,0.1,0.5,0.3
		c0.6,0.8,5.9,7.6,5.9,10.9C16.4,15.9,13.5,18.8,10,18.8z M10,3c-1.8,2.4-5.1,7.2-5.1,9.3c0,2.8,2.3,5.1,5.1,5.1s5.1-2.3,5.1-5.1
		C15.1,10.2,11.8,5.4,10,3z" />
		<path d="M10,16c-0.4,0-0.7-0.3-0.7-0.7c0-0.4,0.3-0.7,0.7-0.7c1.3,0,2.3-1,2.3-2.3c0-0.4,0.3-0.7,0.7-0.7c0.4,0,0.7,0.3,0.7,0.7
		C13.7,14.4,12,16,10,16z" />
	</g>
</svg>
