<?xml version="1.0" encoding="utf-8"?>
<!-- Generator: Adobe Illustrator 23.0.0, SVG Export Plug-In . SVG Version: 6.00 Build 0)  -->
<svg version="1.1" id="Слой_1" xmlns="http://www.w3.org/2000/svg" xmlns:xlink="http://www.w3.org/1999/xlink" x="0px" y="0px"
	 viewBox="0 0 20 20" style="enable-background:new 0 0 20 20;" xml:space="preserve">
<g>
	<path d="M15.6,8.4h-3.4c0.3-0.4,0.5-1,0.5-1.5c0-1.4-1.1-2.6-2.6-2.6S7.6,5.5,7.6,6.9c0,0.6,0.2,1.1,0.5,1.5H4.6L1.4,18.6h17.4
		L15.6,8.4z M7.2,12.5h2.4v2H7L7.2,12.5z M5.9,14.5H3.8l0.6-2h1.7L5.9,14.5z M16.5,14.5h-2.1l-0.2-2h1.7L16.5,14.5z M13.3,14.5h-2.7
		v-2H13L13.3,14.5z M10.6,11.5v-2h2.1l0.2,2H10.6z M9.6,11.5H7.3l0.2-2h2.1V11.5z M9.6,15.5v2.1h-3l0.2-2.1H9.6z M10.6,15.5h2.8
		l0.2,2.1h-3V15.5z M14.4,15.5h2.4l0.7,2.1h-2.8L14.4,15.5z M15.5,11.5H14l-0.2-2h1.1L15.5,11.5z M8.6,6.9c0-0.8,0.7-1.5,1.5-1.5
		s1.5,0.7,1.5,1.5S11,8.4,10.1,8.4C9.3,8.4,8.6,7.7,8.6,6.9z M6.5,9.4l-0.2,2H4.8l0.6-2H6.5L6.5,9.4z M3.5,15.5h2.4l-0.2,2.1H2.8
		L3.5,15.5z"/>
	<rect x="9.6" y="1.2" width="1" height="2.1"/>
	<rect x="4.5" y="6.4" width="2" height="1"/>
	<rect x="13.7" y="6.4" width="2" height="1"/>
	<rect x="12.3" y="3.2" transform="matrix(0.7071 -0.7071 0.7071 0.7071 1.3111 10.4758)" width="2" height="1"/>
	<rect x="6.4" y="2.6" transform="matrix(0.7071 -0.7071 0.7071 0.7071 -0.5252 5.9122)" width="1" height="2"/>
</g>
</svg>
