<?xml version="1.0" encoding="utf-8"?>
<svg version="1.1" xmlns="http://www.w3.org/2000/svg" xmlns:xlink="http://www.w3.org/1999/xlink" x="0px" y="0px" viewBox="0 0 20 20" style="enable-background:new 0 0 20 20;" xml:space="preserve">
	<g>
		<path d="M19.3,7.1c-1.2-1.2-2.6-2.2-4.2-2.8c-1.6-0.7-3.3-1-5.1-1c-1.8,0-3.5,0.3-5.1,1C3.3,5,1.9,5.9,0.7,7.1
		C0.5,7.3,0.5,7.6,0.6,7.8l4.5,7.5c0.1,0.2,0.3,0.3,0.5,0.3h0.6c0.1,0.3,0.2,0.5,0.3,0.8c0.1,0.2,0.2,0.5,0.2,0.7
		c0.1,0.2,0.1,0.4,0.1,0.6c0,0.3,0.3,0.6,0.6,0.6c0.3,0,0.6-0.3,0.6-0.6c0-0.3,0-0.6-0.1-0.9c-0.1-0.3-0.2-0.5-0.3-0.8
		c0-0.1-0.1-0.3-0.1-0.4h1.8c0.1,0.3,0.2,0.5,0.3,0.8c0.1,0.2,0.2,0.5,0.2,0.7c0.1,0.2,0.1,0.4,0.1,0.6c0,0.3,0.3,0.6,0.6,0.6
		c0.3,0,0.6-0.3,0.6-0.6c0-0.3,0-0.6-0.1-0.9c-0.1-0.3-0.2-0.5-0.3-0.8c0-0.1-0.1-0.3-0.1-0.4h1.8c0.1,0.3,0.2,0.5,0.3,0.8
		c0.1,0.2,0.2,0.5,0.2,0.7c0.1,0.2,0.1,0.4,0.1,0.6c0,0.3,0.3,0.6,0.6,0.6s0.6-0.3,0.6-0.6c0-0.3,0-0.6-0.1-0.9
		c-0.1-0.3-0.2-0.5-0.3-0.8c0-0.1-0.1-0.3-0.1-0.4h1.1c0.2,0,0.4-0.1,0.5-0.3l4.5-7.5C19.5,7.6,19.5,7.3,19.3,7.1z M13.2,14.5
		c0-0.1,0-0.2,0.1-0.3c0.1-0.2,0.1-0.4,0.2-0.7c0.1-0.3,0.2-0.5,0.3-0.8c0.1-0.3,0.1-0.6,0.1-0.9c0-0.3,0-0.6-0.1-0.9
		c0-0.1-0.1-0.3-0.1-0.4h0.5c0.2,0,0.3-0.3,0.2-0.4L13.2,9c-0.1-0.1-0.3-0.1-0.3,0l-1.1,1.1c-0.2,0.2,0,0.4,0.2,0.4h0.4c0,0,0,0,0,0
		c0.1,0.2,0.2,0.5,0.2,0.7c0.1,0.2,0.1,0.4,0.1,0.6c0,0.2,0,0.4-0.1,0.6c-0.1,0.2-0.1,0.4-0.2,0.7c-0.1,0.3-0.2,0.5-0.3,0.8
		c-0.1,0.2-0.1,0.4-0.1,0.6h-1.8c0-0.1,0-0.2,0.1-0.3c0.1-0.2,0.1-0.4,0.2-0.7c0.1-0.3,0.2-0.5,0.3-0.8c0.1-0.3,0.1-0.6,0.1-0.9
		c0-0.3,0-0.6-0.1-0.9c0-0.1-0.1-0.3-0.1-0.4h0.4c0.2,0,0.3-0.3,0.2-0.4L10.2,9c-0.1-0.1-0.3-0.1-0.3,0l-1.1,1.1
		c-0.2,0.2,0,0.4,0.2,0.4h0.5c0,0,0,0,0,0c0.1,0.2,0.2,0.5,0.2,0.7c0.1,0.2,0.1,0.4,0.1,0.6c0,0.2,0,0.4-0.1,0.6
		c-0.1,0.2-0.1,0.4-0.2,0.7c-0.1,0.3-0.2,0.5-0.3,0.8C9.1,14.1,9,14.3,9,14.5H7.2c0-0.1,0-0.2,0.1-0.3c0.1-0.2,0.1-0.4,0.2-0.7
		c0.1-0.3,0.2-0.5,0.3-0.8c0.1-0.3,0.1-0.6,0.1-0.9c0-0.3,0-0.6-0.1-0.9c0-0.1-0.1-0.3-0.1-0.4H8c0.2,0,0.3-0.3,0.2-0.4L7.1,9
		C7,8.9,6.9,8.9,6.8,9l-1.1,1.1c-0.2,0.2,0,0.4,0.2,0.4h0.5c0,0,0,0,0,0c0.1,0.2,0.2,0.5,0.2,0.7c0.1,0.2,0.1,0.4,0.1,0.6
		c0,0.2,0,0.4-0.1,0.6c-0.1,0.2-0.1,0.4-0.2,0.7c-0.1,0.3-0.2,0.5-0.3,0.8C6.1,14.1,6,14.3,6,14.5H5.9L1.8,7.6
		C4.1,5.6,6.9,4.4,10,4.4c3.1,0,5.9,1.1,8.2,3.2l-4.1,6.9H13.2z" />
	</g>
</svg>
