<?xml version="1.0" encoding="utf-8"?>
<svg version="1.1" xmlns="http://www.w3.org/2000/svg" xmlns:xlink="http://www.w3.org/1999/xlink" x="0px" y="0px" viewBox="0 0 20 20" style="enable-background:new 0 0 20 20;" xml:space="preserve">
	<style type="text/css">
		.st0{stroke:#000000;stroke-width:0.5;stroke-miterlimit:10;}
	</style>
	<g>
		<g>
			<path class="st0" d="M8.7,18.7c0.1,0,0.1,0,0.2,0c0.1,0,0.3-0.1,0.4-0.2l6.6-10.1c0.1-0.1,0.1-0.3,0-0.5c-0.1-0.1-0.3-0.2-0.4-0.2
			l-4.7,0.8l1.2-6.9c0-0.2-0.1-0.4-0.3-0.5c-0.2-0.1-0.4,0-0.5,0.2l-6.6,11c-0.1,0.1-0.1,0.3,0,0.5c0.1,0.1,0.3,0.2,0.4,0.2l4.6-0.8
			l-1.2,6C8.4,18.5,8.5,18.7,8.7,18.7z M5.7,12l4.9-8.1L9.7,9c0,0.1,0,0.3,0.1,0.4c0.1,0.1,0.2,0.1,0.4,0.1l4.3-0.7l-4.8,7.3
			l0.9-4.3c0-0.1,0-0.3-0.1-0.4c-0.1-0.1-0.2-0.1-0.3-0.1c0,0,0,0-0.1,0L5.7,12z" />
		</g>
	</g>
</svg>
