<?xml version="1.0" encoding="utf-8"?>
<svg version="1.1" xmlns="http://www.w3.org/2000/svg" xmlns:xlink="http://www.w3.org/1999/xlink" x="0px" y="0px" viewBox="0 0 20 20" style="enable-background:new 0 0 20 20;" xml:space="preserve">
	<style type="text/css">
		.st0{stroke:#000000;stroke-width:0.2;stroke-miterlimit:10;}
	</style>
	<path class="st0" d="M17.7,8.4h-1.1c-0.1-0.7-0.4-1.2-0.8-1.8l0.8-0.8c0.3-0.3,0.4-0.7,0.4-1.1c0-0.4-0.2-0.9-0.4-1.1
	c-0.7-0.7-1.7-0.7-2.4,0l-0.8,0.8c-0.6-0.3-1.1-0.6-1.8-0.8V2.4c0-0.9-0.8-1.6-1.6-1.6c-0.8,0-1.6,0.6-1.6,1.5v1.1
	C7.9,3.7,7.2,3.9,6.6,4.2L5.8,3.4c-0.7-0.7-1.7-0.7-2.4,0s-0.7,1.7,0,2.4l0.8,0.8C4,7.1,3.8,7.7,3.6,8.4H2.5c-0.9,0-1.6,0.8-1.6,1.6
	c0,0.8,0.7,1.7,1.6,1.7h1.1c0.1,0.7,0.4,1.2,0.8,1.8l-0.8,0.8c-0.3,0.3-0.4,0.7-0.4,1.1c0,0.4,0.2,0.9,0.4,1.1
	c0.3,0.3,0.8,0.4,1.1,0.4c0.4,0,0.8-0.1,1.1-0.4l0.8-0.8c0.6,0.3,1.1,0.6,1.8,0.8v1.1c0,0.9,0.8,1.6,1.6,1.6c0.8,0,1.6-0.8,1.6-1.6
	v-1.1c0.7-0.1,1.2-0.4,1.8-0.8l0.8,0.8c0.3,0.3,0.8,0.4,1.1,0.4s0.8-0.1,1.1-0.4c0.3-0.3,0.4-0.7,0.4-1.1c0-0.4-0.2-0.9-0.4-1.1
	l-0.8-0.8c0.3-0.6,0.6-1.1,0.8-1.8h1.1c0.9,0,1.6-0.8,1.6-1.6C19.1,9.3,18.6,8.4,17.7,8.4z M3.5,10.5h-1c-0.3,0-0.6-0.2-0.6-0.6
	s0.2-0.6,0.6-0.6h1c0,0.2,0,0.3,0,0.6S3.4,10.4,3.5,10.5z M9.6,2.3c0-0.3,0.2-0.6,0.6-0.6s0.6,0.2,0.6,0.6v1c-0.2,0-0.3,0-0.6,0
	s-0.3,0-0.6,0V2.3z M4.4,5c-0.2-0.2-0.2-0.6,0-0.8C4.6,4,4.9,4,5.2,4.2l0.6,0.7C5.5,5.1,5.3,5.3,5.1,5.7L4.4,5z M5.1,15.8
	c-0.2,0.2-0.6,0.2-0.8,0c-0.1-0.1-0.1-0.2-0.1-0.3s0.1-0.3,0.1-0.3l0.7-0.7c0.2,0.2,0.4,0.6,0.8,0.8L5.1,15.8z M10.7,17.6
	c0,0.3-0.2,0.6-0.6,0.6s-0.6-0.2-0.6-0.6v-1c0.2,0,0.3,0,0.6,0s0.3,0,0.6,0V17.6z M10.1,15.6c-3.1,0-5.6-2.5-5.6-5.6S7,4.3,10.1,4.3
	s5.6,2.5,5.6,5.6S13.3,15.6,10.1,15.6z M15.8,15c0.2,0.2,0.2,0.6,0,0.8c-0.2,0.2-0.6,0.2-0.8,0l-0.7-0.7c0.2-0.2,0.6-0.4,0.8-0.8
	L15.8,15z M15.2,5.7c-0.2-0.2-0.4-0.6-0.8-0.8l0.7-0.7c0.2-0.2,0.6-0.2,0.8,0C16,4.3,16,4.4,16,4.6s0,0.3-0.1,0.4L15.2,5.7z
	 M17.7,10.5h-1c0-0.2,0-0.3,0-0.6s0-0.3,0-0.6h1c0.3,0,0.6,0.2,0.6,0.6S18.1,10.5,17.7,10.5z" />
	<g>
		<g>
			<path d="M183.2,249c-0.2-1.7,0-3.4,0.4-5c1.5-5.2,6.2-8.9,11.9-9v-3.4c0-0.2,0.2-0.3,0.4-0.2l6.9,5.1c0.1,0.1,0.1,0.3,0,0.3
			l-6.9,5.1c-0.2,0.1-0.4,0-0.4-0.2v-3.4c-3.7,0.1-6.9,2.3-8.2,5.6c-0.5,1.2-0.8,2.6-0.7,4c0.1,1.9,0.8,3.7,2,5.2
			c0.6,0.8,0.5,1.9-0.3,2.5c-0.8,0.6-1.8,0.4-2.4-0.3C184.4,253.5,183.4,251.3,183.2,249z M203.2,242.5c1.2,1.4,1.9,3.2,2,5.2
			c0.1,1.4-0.2,2.8-0.7,4c-1.4,3.2-4.5,5.5-8.2,5.6v-3.4c0-0.2-0.2-0.3-0.4-0.2l-6.9,5.1c-0.1,0.1-0.1,0.3,0,0.3l6.9,5.1
			c0.2,0.1,0.4,0,0.4-0.2v-3.4c5.6-0.1,10.4-3.9,11.9-9c0.5-1.6,0.6-3.2,0.4-5c-0.3-2.4-1.2-4.5-2.6-6.3c-0.6-0.7-1.6-0.9-2.4-0.3
			C202.7,240.6,202.5,241.7,203.2,242.5z" />
		</g>
	</g>
	<g>
		<g>
			<path d="M5.3,10.4c-0.1-0.7,0-1.3,0.2-1.9C6,6.6,7.8,5.1,10,5.1V3.8c0-0.1,0.1-0.1,0.1-0.1l2.6,1.9c0,0,0,0.1,0,0.1l-2.6,1.9
			c-0.1,0-0.1,0-0.1-0.1V6.4c-1.4,0-2.6,0.9-3.1,2.1c-0.2,0.5-0.3,1-0.3,1.5c0,0.7,0.3,1.4,0.8,2c0.2,0.3,0.2,0.7-0.1,0.9
			c-0.3,0.2-0.7,0.2-0.9-0.1C5.7,12.2,5.4,11.3,5.3,10.4z M12.9,8c0.4,0.5,0.7,1.2,0.8,2c0,0.5-0.1,1.1-0.3,1.5
			c-0.5,1.2-1.7,2.1-3.1,2.1v-1.3c0-0.1-0.1-0.1-0.1-0.1l-2.6,1.9c0,0,0,0.1,0,0.1l2.6,1.9c0.1,0,0.1,0,0.1-0.1v-1.3
			c2.1,0,4-1.5,4.5-3.4c0.2-0.6,0.2-1.2,0.2-1.9c-0.1-0.9-0.5-1.7-1-2.4C13.7,6.9,13.3,6.8,13,7C12.7,7.3,12.7,7.7,12.9,8z" />
		</g>
	</g>
</svg>
