<?xml version="1.0" encoding="utf-8"?>
<svg version="1.1" xmlns="http://www.w3.org/2000/svg" xmlns:xlink="http://www.w3.org/1999/xlink" x="0px" y="0px" viewBox="0 0 20 20" style="enable-background:new 0 0 20 20;" xml:space="preserve">
	<style type="text/css">
		.st0{stroke:#000000;stroke-width:0.25;stroke-miterlimit:10;}
	</style>
	<g>
		<g>
			<path class="st0" d="M15,8.5H9.5V4.4H10c0.3,0,0.5-0.2,0.5-0.5v-1c0-0.8-0.7-1.5-1.5-1.5H4c-0.8,0-1.5,0.7-1.5,1.5v1
			c0,0.3,0.2,0.5,0.5,0.5h0.5V10c0,0.7,0.4,1.2,1,1.4V13c0,1.2,0.8,2.1,1.8,2.4l-0.8,2.4c-0.1,0.2,0,0.3,0.1,0.5
			c0.1,0.1,0.2,0.2,0.4,0.2h6c0.2,0,0.3-0.1,0.4-0.2c0.1-0.1,0.1-0.3,0.1-0.5l-0.8-2.4H12c2.3,0,4.2-1.8,4.5-4H17
			c0.3,0,0.5-0.2,0.5-0.5C17.5,9.7,16.4,8.5,15,8.5z M3.5,3.4V2.9c0-0.3,0.2-0.5,0.5-0.5h5c0.3,0,0.5,0.2,0.5,0.5v0.5
			C9.1,3.4,3.7,3.4,3.5,3.4z M5,10.5c-0.3,0-0.5-0.2-0.5-0.5V4.4h4v6.1H5z M12,14.6h-1c-0.2,0-0.3,0.1-0.4,0.2
			c-0.1,0.1-0.1,0.3-0.1,0.5l0.8,2.4H6.7l0.8-2.4c0.1-0.2,0-0.3-0.1-0.5c-0.1-0.1-0.2-0.2-0.4-0.2c-0.8,0-1.5-0.7-1.5-1.5v-1.5
			c0.4,0,9.6,0,10,0C15.2,13.2,13.8,14.6,12,14.6z M9.5,10.5v-1H15c0.7,0,1.2,0.4,1.4,1H9.5z" />
		</g>
	</g>
</svg>
