<?xml version="1.0" encoding="utf-8"?>
<svg version="1.1" xmlns="http://www.w3.org/2000/svg" xmlns:xlink="http://www.w3.org/1999/xlink" x="0px" y="0px" viewBox="0 0 20 20" style="enable-background:new 0 0 20 20;" xml:space="preserve">
	<g>
		<path d="M15.8,18l-1.5-4.6c0.9-1,1.5-2.3,1.5-3.7c0-0.3-0.3-0.6-0.6-0.6H7.3l5.4-5.4C13,3.4,13,3,12.7,2.8c-1.9-1.9-4.9-2-6.9-0.5
		L5.6,2.1C5.4,1.9,5,1.9,4.7,2.1C4.5,2.4,4.5,2.8,4.7,3l0.2,0.2C4.2,4.1,3.7,5.3,3.7,6.5c0,1.4,0.5,2.7,1.5,3.7
		c0.1,1.2,0.7,2.3,1.5,3.1L5.3,18c-0.1,0.3,0.1,0.6,0.4,0.7c0.1,0,0.1,0,0.2,0c0.2,0,0.5-0.2,0.6-0.4l1.4-4.1
		c0.8,0.5,1.7,0.8,2.7,0.8c1,0,2-0.3,2.8-0.8l1.4,4.2c0.1,0.2,0.3,0.4,0.6,0.4c0.1,0,0.1,0,0.2,0C15.7,18.6,15.9,18.3,15.8,18z
		 M6.1,3.6C6.9,2.8,8,2.4,9,2.4c0.9,0,1.7,0.3,2.4,0.8L5.7,9C5.2,8.3,4.9,7.4,4.9,6.5C4.9,5.4,5.3,4.4,6.1,3.6z M6.5,10.3h8.1
		c-0.3,2-2,3.5-4.1,3.5S6.8,12.3,6.5,10.3z" />
		<path d="M14.3,7.9c0,0.2,0.2,0.4,0.4,0.4c0.2,0,0.4-0.2,0.4-0.4c0-0.5-0.2-0.8-0.3-1c-0.1-0.2-0.2-0.3-0.2-0.5s0.1-0.3,0.2-0.5
		c0.1-0.2,0.3-0.5,0.3-1c0-0.2-0.2-0.4-0.4-0.4c-0.2,0-0.4,0.2-0.4,0.4c0,0.2-0.1,0.3-0.2,0.5c-0.1,0.2-0.3,0.5-0.3,1s0.2,0.8,0.3,1
		C14.2,7.6,14.3,7.7,14.3,7.9z" />
		<path d="M12.3,5c0,0.2-0.1,0.3-0.2,0.5c-0.1,0.2-0.3,0.5-0.3,1s0.2,0.8,0.3,1c0.1,0.2,0.2,0.3,0.2,0.5c0,0.2,0.2,0.4,0.4,0.4
		c0.2,0,0.4-0.2,0.4-0.4c0-0.5-0.2-0.8-0.3-1c-0.1-0.2-0.2-0.3-0.2-0.5s0.1-0.3,0.2-0.5c0.1-0.2,0.3-0.5,0.3-1
		c0-0.2-0.2-0.4-0.4-0.4C12.5,4.6,12.3,4.8,12.3,5z" />
	</g>
</svg>
