<?xml version="1.0" encoding="utf-8"?>
<svg version="1.1" xmlns="http://www.w3.org/2000/svg" xmlns:xlink="http://www.w3.org/1999/xlink" x="0px" y="0px" viewBox="0 0 20 20" style="enable-background:new 0 0 20 20;" xml:space="preserve">
	<path d="M10.5,15.3l-1.4-4L5.1,10l9.1-3.7L10.5,15.3z M8.5,9.9l1.5,0.5l0.6,1.6L12,8.4L8.5,9.9z M10.4,17.7c-2.1,0-4-0.8-5.4-2.3
	S2.7,12.1,2.7,10S3.5,6,5,4.6s3.4-2.3,5.4-2.3s4,0.8,5.4,2.3s2.3,3.4,2.3,5.4s-0.8,4-2.3,5.4S12.5,17.7,10.4,17.7z M10.4,3.5
	c-3.6,0-6.5,2.9-6.5,6.5s2.9,6.5,6.5,6.5s6.5-2.9,6.5-6.5S14,3.5,10.4,3.5z" />
</svg>
