<?xml version="1.0" encoding="utf-8"?>
<svg version="1.1" xmlns="http://www.w3.org/2000/svg" xmlns:xlink="http://www.w3.org/1999/xlink" x="0px" y="0px" viewBox="0 0 20 20" style="enable-background:new 0 0 20 20;" xml:space="preserve">
	<style type="text/css">
		.st0{stroke:#000000;stroke-width:0.35;stroke-miterlimit:10;}
	</style>
	<g>
		<g>
			<path class="st0" d="M13.3,12.7l0.6,0.9l1-0.6c-0.4,1.9-1.8,2.3-3.2,2.8c-0.4,0.1-0.8,0.3-1.2,0.5V7.9h2.2V6.8h-2.2V5
			c0.9-0.2,1.5-1,1.5-2c0-1.1-0.9-2.1-2.1-2.1C8.9,0.9,7.9,1.8,7.9,3c0,0.9,0.6,1.7,1.5,2v1.9H7.2v1.1h2.2v8.3
			c-0.4-0.2-0.8-0.3-1.2-0.5c-1.4-0.5-2.8-0.9-3.2-2.8l1,0.6l0.6-0.9l-2.8-1.8v1c0,1.6,0.5,2.7,1.4,3.6c0.8,0.7,1.8,1,2.6,1.3
			c0.8,0.3,1.4,0.5,1.6,0.9l0.5,1.2l0.5-1.2c0.2-0.4,0.8-0.6,1.6-0.9c0.9-0.3,1.8-0.6,2.6-1.3c0.9-0.8,1.4-2,1.4-3.6v-1L13.3,12.7z
			 M10,3.9c-0.5,0-1-0.4-1-1c0-0.5,0.4-1,1-1c0.5,0,1,0.4,1,1C11,3.5,10.5,3.9,10,3.9z" />
		</g>
	</g>
</svg>
