<?xml version="1.0" encoding="utf-8"?>
<svg version="1.1" xmlns="http://www.w3.org/2000/svg" xmlns:xlink="http://www.w3.org/1999/xlink" x="0px" y="0px" viewBox="0 0 20 20" style="enable-background:new 0 0 20 20;" xml:space="preserve">
	<g>
		<g id="Wi-Fi">
			<g>
				<path d="M10,13.8c-0.9,0-1.6,0.7-1.6,1.6s0.7,1.6,1.6,1.6c0.9,0,1.6-0.7,1.6-1.6C11.6,14.5,10.9,13.8,10,13.8z M18.5,8.2
				c-2.1-2.5-5.2-4-8.5-4s-6.4,1.4-8.5,4C1.2,8.6,1.3,9.1,1.6,9.3c0.1,0.1,0.3,0.2,0.5,0.2c0.2,0,0.5-0.1,0.6-0.3
				C4.5,7.1,7.2,5.8,10,5.8s5.5,1.2,7.3,3.4c0.2,0.2,0.4,0.3,0.6,0.3c0.2,0,0.4-0.1,0.5-0.2C18.7,9.1,18.8,8.6,18.5,8.2z M10,7.4
				c-2.3,0-4.6,1-6.1,2.8c-0.3,0.3-0.2,0.8,0.1,1.1c0.1,0.1,0.3,0.2,0.5,0.2c0.2,0,0.5-0.1,0.6-0.3C6.4,9.8,8.1,9,10,9
				s3.6,0.8,4.9,2.3c0.2,0.2,0.4,0.3,0.6,0.3c0.2,0,0.4-0.1,0.5-0.2c0.3-0.3,0.4-0.8,0.1-1.1C14.6,8.5,12.3,7.4,10,7.4z M10,10.6
				c-1.4,0-2.7,0.6-3.6,1.7c-0.3,0.3-0.2,0.8,0.1,1.1c0.1,0.1,0.3,0.2,0.5,0.2c0.2,0,0.5-0.1,0.6-0.3c0.6-0.7,1.5-1.1,2.4-1.1
				c0.9,0,1.8,0.4,2.4,1.1c0.2,0.2,0.4,0.3,0.6,0.3c0.2,0,0.4-0.1,0.5-0.2c0.3-0.3,0.4-0.8,0.1-1.1C12.7,11.2,11.4,10.6,10,10.6z" />
			</g>
		</g>
	</g>
</svg>
