<?xml version="1.0" encoding="utf-8"?>
<svg version="1.1" xmlns="http://www.w3.org/2000/svg" xmlns:xlink="http://www.w3.org/1999/xlink" x="0px" y="0px" viewBox="0 0 20 20" style="enable-background:new 0 0 20 20;" xml:space="preserve">
	<style type="text/css">
		.st0{stroke:#000000;stroke-width:0.25;stroke-miterlimit:10;}
	</style>
	<g>
		<path class="st0" d="M16.1,3.8V2.6c0-0.6-0.5-1.1-1.1-1.1H5C4.5,1.5,4,2,4,2.6v1.2c0,0.5,0.4,1,0.9,1c0,0.6,0,10,0,10.3
		c-0.5,0.1-0.9,0.5-0.9,1v1.2C4,18,4.5,18.5,5,18.5h10c0.6,0,1.1-0.5,1.1-1.1v-1.2c0-0.5-0.4-1-0.9-1c0-0.4,0-9.8,0-10.3
		C15.7,4.8,16.1,4.3,16.1,3.8z M15.1,17.4H5v-1.2c0.3,0,9.7,0,10,0V17.4C15.1,17.4,15.1,17.4,15.1,17.4z M14.1,8.3v3.3H5.9V8.3H14.1
		z M5.9,7.3V4.8h8.2v2.4H5.9z M14.1,12.7v2.4H5.9v-2.4H14.1z M5,3.8V2.6h10l0,1.2C15.1,3.8,5,3.8,5,3.8z" />
	</g>
</svg>
