<?xml version="1.0" encoding="utf-8"?>
<svg version="1.1" xmlns="http://www.w3.org/2000/svg" xmlns:xlink="http://www.w3.org/1999/xlink" x="0px" y="0px" viewBox="0 0 20 20" style="enable-background:new 0 0 20 20;" xml:space="preserve">
	<style type="text/css">
		.st0{stroke:#000000;stroke-width:0.2;stroke-miterlimit:10;}
	</style>
	<path d="M10.3,6c-2.2,0-4,1.8-4,4s1.8,4,4,4s4-1.8,4-4S12.5,6,10.3,6z M7.8,8.2l1.3,1.3H7.3C7.4,9.1,7.5,8.6,7.8,8.2z M7.3,10.5h1.9
	l-1.3,1.3C7.5,11.5,7.4,11,7.3,10.5z M9.8,13.1c-0.5-0.1-0.9-0.3-1.3-0.6l1.3-1.3V13.1z M9.8,8.9L8.5,7.6C8.9,7.3,9.3,7.1,9.8,7V8.9
	z M13.3,9.6h-1.9l1.3-1.3C13.1,8.6,13.2,9.1,13.3,9.6z M10.8,7c0.5,0.1,0.9,0.3,1.3,0.5l-1.3,1.3V7z M10.8,13.1v-1.9l1.3,1.3
	C11.7,12.8,11.3,13,10.8,13.1z M12.8,11.8l-1.3-1.3h1.8C13.2,11,13.1,11.5,12.8,11.8z" />
	<path class="st0" d="M17.9,8.4h-1.1c-0.1-0.7-0.4-1.2-0.8-1.8l0.8-0.8c0.3-0.3,0.4-0.7,0.4-1.1c0-0.4-0.2-0.9-0.4-1.1
	c-0.7-0.7-1.7-0.7-2.4,0l-0.8,0.8c-0.6-0.3-1.1-0.6-1.8-0.8V2.4c0-0.9-0.8-1.6-1.6-1.6c-0.8,0-1.6,0.6-1.6,1.5v1.1
	C8.1,3.7,7.4,3.9,6.8,4.2L6,3.4c-0.7-0.7-1.7-0.7-2.4,0S3,5.1,3.7,5.8l0.8,0.8C4.2,7.1,4,7.7,3.8,8.4H2.7c-0.9,0-1.6,0.8-1.6,1.6
	c0,0.8,0.7,1.7,1.6,1.7h1.1c0.1,0.7,0.4,1.2,0.8,1.8l-0.8,0.8c-0.3,0.3-0.4,0.7-0.4,1.1c0,0.4,0.2,0.9,0.4,1.1
	c0.3,0.3,0.8,0.4,1.1,0.4c0.4,0,0.8-0.1,1.1-0.4l0.8-0.8C7.4,16,8,16.2,8.6,16.5v1.1c0,0.9,0.8,1.6,1.6,1.6c0.8,0,1.6-0.8,1.6-1.6
	v-1.1c0.7-0.1,1.2-0.4,1.8-0.8l0.8,0.8c0.3,0.3,0.8,0.4,1.1,0.4c0.3,0,0.8-0.1,1.1-0.4c0.3-0.3,0.4-0.7,0.4-1.1
	c0-0.4-0.2-0.9-0.4-1.1l-0.8-0.8c0.3-0.6,0.6-1.1,0.8-1.8h1.1c0.9,0,1.6-0.8,1.6-1.6C19.3,9.3,18.8,8.4,17.9,8.4z M3.7,10.5h-1
	c-0.3,0-0.6-0.2-0.6-0.6s0.2-0.6,0.6-0.6h1c0,0.2,0,0.3,0,0.6S3.6,10.4,3.7,10.5z M9.7,2.3c0-0.3,0.2-0.6,0.6-0.6
	c0.3,0,0.6,0.2,0.6,0.6v1c-0.2,0-0.3,0-0.6,0c-0.2,0-0.3,0-0.6,0V2.3z M4.6,5c-0.2-0.2-0.2-0.6,0-0.8C4.8,4,5.1,4,5.4,4.2l0.6,0.7
	C5.7,5.1,5.5,5.3,5.3,5.7L4.6,5z M5.3,15.8C5,16,4.7,16,4.5,15.8c-0.1-0.1-0.1-0.2-0.1-0.3s0.1-0.3,0.1-0.3l0.7-0.7
	c0.2,0.2,0.4,0.6,0.8,0.8L5.3,15.8z M10.9,17.6c0,0.3-0.2,0.6-0.6,0.6c-0.3,0-0.6-0.2-0.6-0.6v-1c0.2,0,0.3,0,0.6,0
	c0.2,0,0.3,0,0.6,0V17.6z M10.3,15.6c-3.1,0-5.6-2.5-5.6-5.6s2.5-5.6,5.6-5.6s5.6,2.5,5.6,5.6S13.5,15.6,10.3,15.6z M16,15
	c0.2,0.2,0.2,0.6,0,0.8c-0.2,0.2-0.6,0.2-0.8,0l-0.7-0.7c0.2-0.2,0.6-0.4,0.8-0.8L16,15z M15.4,5.7c-0.2-0.2-0.4-0.6-0.8-0.8
	l0.7-0.7C15.5,4,15.8,4,16,4.2c0.1,0.1,0.1,0.2,0.1,0.3s0,0.3-0.1,0.4L15.4,5.7z M17.9,10.5h-1c0-0.2,0-0.3,0-0.6s0-0.3,0-0.6h1
	c0.3,0,0.6,0.2,0.6,0.6S18.3,10.5,17.9,10.5z" />
	<g>
		<g>
			<path d="M17.8,16.6h0.9l0.9,2.9h-0.7L18.5,18c0-0.3-0.1-0.6-0.1-0.9l0,0c0,0.3-0.1,0.6-0.1,0.9l-0.3,1.4h-1L17.8,16.6z M17.5,18.1
			h1.3v0.6h-1.3V18.1z" />
		</g>
	</g>
</svg>
