<svg xmlns="http://www.w3.org/2000/svg" xmlns:xlink="http://www.w3.org/1999/xlink" width="114" height="37"><path d="M50.6 32.3H31.3v-1.1L48.6 6.4H32.4V5.1h18v1.3L33.1 31h17.5v1.3zm28-13.6c0 8.2-4.8 14.2-12.5 14.2s-12.5-6-12.5-14.2S58.4 4.5 66.1 4.5c7.6 0 12.5 6 12.5 14.2zm-1.7 0c0-8.2-4.8-12.9-10.8-12.9s-10.9 4.7-10.9 12.9S60 31.6 66.1 31.6c6 0 10.8-4.7 10.8-12.9zm7 13.6V5.1h1.5v27.3h-1.5zm12.8-10.4l-3.8 10.4h-1.6L101.7 5h2L114 32.3h-1.6l-3.9-10.4H96.7zm11.2-1.3l-5.3-14.3-5.4 14.3h10.7z" fill="#757478"/><use xlink:href="#E" fill="#fcd600"/><linearGradient id="A" gradientUnits="userSpaceOnUse" x1="2.627" y1="21.578" x2="20.303" y2="15.691"><stop offset="0" stop-color="#2c4267"/><stop offset=".099" stop-color="#43426f" stop-opacity=".9"/><stop offset=".272" stop-color="#66427a" stop-opacity=".728"/><stop offset=".448" stop-color="#814383" stop-opacity=".552"/><stop offset=".626" stop-color="#94438a" stop-opacity=".374"/><stop offset=".808" stop-color="#9f438e" stop-opacity=".192"/><stop offset="1" stop-color="#a3438f" stop-opacity="0"/></linearGradient><use xlink:href="#E" x="-0.4" fill="url(#A)"/><path d="M9.4 20.5c-5.7 1.4-5.5.1-5.5.1l-1.3-2.1c-.5.8-1 1.9-.3 3 1.2 1.9 3.4 1.7 3.9 1.7s5.8-1.3 5.8-1.3 3-2.2 5.5-3.4l-8.1 2z" opacity=".43" fill="#dc5480"/><path d="M19.5 0s4.6 5.2-4.5 11.9C5.2 19.1 2.7 23.3 6.7 23.3c0 0-5.6 1.4-6.5-4-.5-3.2 1.6-5.1 4.2-7.2 0 0 9-6.5 15.1-12.1z" fill="#fdcd00"/><linearGradient id="B" gradientUnits="userSpaceOnUse" x1="15.773" y1="37.512" x2="12.65" y2="28.136"><stop offset="0" stop-color="#d4366b"/><stop offset=".5" stop-color="#ab3972"/><stop offset="1" stop-color="#ab3972"/></linearGradient><path d="M14.7 27.4s-3.1 5.3 2.6 9.4c.1 0 0 .1-.1.1-.9-.3-2.4-.9-3.5-1.6-3.5-1.8-.8-5.9 1-7.9z" fill="url(#B)"/><path d="M14.7 27.4s-3.1 5.3 2.6 9.4c.1 0 0 .1-.1.1-.9-.3-3-1.1-3.9-1.9-2.9-2.7-.4-5.6 1.4-7.6z" fill="#dc5480"/><path d="M23.6 18.5c-.2-2.5-3.6-2.8-3.6-2.8 2 1.1-4.2 2.4-8.8 7.5-3.2 3.6-2 7.3-2 7.3 1 3.4 4.5 4.9 4.5 4.9-5.5-8 10.2-12.4 9.9-16.9z" fill="#686d6f"/><path d="M23.6 18.5c-.1-2.5-3.6-2.8-3.6-2.8 2 1.1-4.2 2.4-8.8 7.5-3.2 3.6-2 7.3-2 7.3 1 3.4 4.5 4.9 4.5 4.9-5.5-8 9.8-12.2 9.9-16.9z" fill="#73787b"/><path d="M19.3 0s.8 3.8-9.7 11.3C1.3 17.2 0 21.8 2.8 23.1c.9.3 1.9.4 2.6.3.3 0 .7-.1 1.1-.1-4 .1-1.5-4.1 8.3-11.4C23.9 5.2 19.3 0 19.3 0z" opacity=".25" fill="#fff"/><path d="M21.1 19.1c1.9-1.4.9-2.5.8-2.6-1-.6-1.9-.7-1.9-.7 2 1.1-4.2 2.4-8.8 7.5-3.2 3.6-2 7.3-2 7.3 1 3.4 4.5 4.9 4.5 4.9-10.3-6.1 5.4-14.9 7.4-16.4z" fill="#d2ac20"/><linearGradient id="C" gradientUnits="userSpaceOnUse" x1="9.387" y1="28.135" x2="25.354" y2="22.817"><stop offset="0" stop-color="#e13e81" stop-opacity="0"/><stop offset=".028" stop-color="#e55791" stop-opacity=".057"/><stop offset=".085" stop-color="#ec83ae" stop-opacity=".17"/><stop offset=".145" stop-color="#f2a9c7" stop-opacity=".29"/><stop offset=".206" stop-color="#f7c9db" stop-opacity=".412"/><stop offset=".27" stop-color="#fae1eb" stop-opacity=".54"/><stop offset=".337" stop-color="#fdf2f6" stop-opacity=".674"/><stop offset=".41" stop-color="#fefcfd" stop-opacity=".82"/><stop offset=".5" stop-color="#fff"/><stop offset=".568" stop-color="#fdfbfc" stop-opacity=".864"/><stop offset=".639" stop-color="#f8eef3" stop-opacity=".722"/><stop offset=".712" stop-color="#efd9e4" stop-opacity=".577"/><stop offset=".785" stop-color="#e3bccf" stop-opacity=".43"/><stop offset=".86" stop-color="#d396b4" stop-opacity=".28"/><stop offset=".934" stop-color="#bf6994" stop-opacity=".133"/><stop offset="1" stop-color="#ab3972" stop-opacity="0"/></linearGradient><path d="M20.2 15.7s1 .1 1.9.7c.1.1 1.1 1.3-.8 2.6-2 1.5-17.9 10-7.3 16.4-5.6-8 9.7-12.2 9.8-16.9-.1-2.5-3.6-2.8-3.6-2.8z" opacity=".17" fill="url(#C)"/><defs ><path id="E" d="M3.8 17.6s2 1 11.6-1.2c2.1-.5 3.6-.8 4.9-.6 0 0 1.2 1.2-1.5 2.4-2.6 1.1-6.3 3.8-6.3 3.8s-5.3 1.4-5.8 1.3c-.5 0-2.7.2-3.9-1.7s1-4 1-4z"/></defs></svg>