<svg xmlns="http://www.w3.org/2000/svg" xmlns:xlink="http://www.w3.org/1999/xlink" width="80" height="26"><path d="M35 22.4H21.7v-.8l12-17.2H22.4v-.9h12.5v.9l-12 17.1H35v.9zM54.5 13c0 5.7-3.4 9.8-8.7 9.8s-8.7-4.2-8.7-9.8c0-5.7 3.4-9.8 8.7-9.8 5.3-.1 8.7 4.1 8.7 9.8zm-1.2 0c0-5.7-3.4-8.9-7.5-8.9-4.2 0-7.5 3.2-7.5 8.9s3.4 8.9 7.5 8.9 7.5-3.3 7.5-8.9zm4.9 9.4V3.5h1v18.9h-1zm8.8-7.2l-2.7 7.2h-1.1l7.2-18.9h1.4L79 22.4h-1.1l-2.7-7.2H67zm7.8-.9l-3.7-9.9-3.7 9.9h7.4z" fill="#ededed"/><use xlink:href="#E" fill="#fcd600"/><linearGradient id="A" gradientUnits="userSpaceOnUse" x1="1.841" y1="14.959" x2="14.094" y2="10.877"><stop offset="0" stop-color="#2c4267"/><stop offset=".099" stop-color="#43426f" stop-opacity=".9"/><stop offset=".272" stop-color="#66427a" stop-opacity=".728"/><stop offset=".448" stop-color="#814383" stop-opacity=".552"/><stop offset=".626" stop-color="#94438a" stop-opacity=".374"/><stop offset=".808" stop-color="#9f438e" stop-opacity=".192"/><stop offset="1" stop-color="#a3438f" stop-opacity="0"/></linearGradient><use xlink:href="#E" x="-0.3" fill="url(#A)"/><path d="M6.5 14.2c-3.9 1-3.8.1-3.8.1l-.9-1.5c-.4.5-.7 1.3-.2 2.1.8 1.3 2.4 1.2 2.7 1.2s4-.9 4-.9 2-1.5 3.8-2.4l-5.6 1.4z" opacity=".43" fill="#dc5480"/><path d="M13.5 0s3.2 3.6-3.1 8.3c-6.8 5-8.5 7.9-5.7 7.9 0 0-3.9 1-4.5-2.8-.4-2.2 1.1-3.5 2.9-5C3 8.4 9.3 3.9 13.5 0z" fill="#fdcd00"/><linearGradient id="B" gradientUnits="userSpaceOnUse" x1="10.932" y1="26.005" x2="8.766" y2="19.505"><stop offset="0" stop-color="#d4366b"/><stop offset=".5" stop-color="#ab3972"/><stop offset="1" stop-color="#ab3972"/></linearGradient><path d="M10.2 19s-2.1 3.6 1.8 6.5v.1c-.6-.2-1.6-.6-2.4-1.1-2.5-1.3-.6-4.1.6-5.5z" fill="url(#B)"/><path d="M10.2 19s-2.1 3.6 1.8 6.5v.1c-.6-.2-2.1-.8-2.7-1.3-2.1-1.9-.3-3.9.9-5.3z" fill="#dc5480"/><path d="M16.3 12.8c-.1-1.7-2.5-1.9-2.5-1.9 1.4.8-2.9 1.7-6.1 5.2-2.2 2.5-1.4 5.1-1.4 5.1.7 2.3 3.1 3.4 3.1 3.4-3.7-5.6 7.2-8.6 6.9-11.8z" fill="#686d6f"/><path d="M16.4 12.8c-.1-1.7-2.5-1.9-2.5-1.9 1.4.8-2.9 1.7-6.1 5.2-2.2 2.5-1.4 5.1-1.4 5.1.7 2.3 3.1 3.4 3.1 3.4-3.8-5.6 6.8-8.5 6.9-11.8z" fill="#73787b"/><path d="M13.4 0s.6 2.6-6.7 7.8C.9 11.9 0 15.1 2 16c.6.2 1.3.3 1.8.2.2 0 .5-.1.7-.1-2.8.1-1-2.9 5.7-7.9C16.6 3.6 13.4 0 13.4 0z" opacity=".25" fill="#fff"/><path d="M14.6 13.2c1.3-1 .6-1.7.6-1.8-.7-.4-1.3-.5-1.3-.5 1.4.8-2.9 1.7-6.1 5.2-2.2 2.5-1.4 5.1-1.4 5.1.7 2.3 3.1 3.4 3.1 3.4-7.1-4.2 3.7-10.4 5.1-11.4z" fill="#d2ac20"/><linearGradient id="C" gradientUnits="userSpaceOnUse" x1="6.504" y1="19.505" x2="17.573" y2="15.818"><stop offset="0" stop-color="#e13e81" stop-opacity="0"/><stop offset=".028" stop-color="#e55791" stop-opacity=".057"/><stop offset=".085" stop-color="#ec83ae" stop-opacity=".17"/><stop offset=".145" stop-color="#f2a9c7" stop-opacity=".29"/><stop offset=".206" stop-color="#f7c9db" stop-opacity=".412"/><stop offset=".27" stop-color="#fae1eb" stop-opacity=".54"/><stop offset=".337" stop-color="#fdf2f6" stop-opacity=".674"/><stop offset=".41" stop-color="#fefcfd" stop-opacity=".82"/><stop offset=".5" stop-color="#fff"/><stop offset=".568" stop-color="#fdfbfc" stop-opacity=".864"/><stop offset=".639" stop-color="#f8eef3" stop-opacity=".722"/><stop offset=".712" stop-color="#efd9e4" stop-opacity=".577"/><stop offset=".785" stop-color="#e3bccf" stop-opacity=".43"/><stop offset=".86" stop-color="#d396b4" stop-opacity=".28"/><stop offset=".934" stop-color="#bf6994" stop-opacity=".133"/><stop offset="1" stop-color="#ab3972" stop-opacity="0"/></linearGradient><path d="M14 10.9s.7.1 1.3.5c.1.1.7.9-.6 1.8-1.4 1-12.4 6.9-5.1 11.3-3.9-5.6 6.7-8.5 6.8-11.7 0-1.7-2.4-1.9-2.4-1.9z" opacity=".17" fill="url(#C)"/><defs ><path id="E" d="M2.6 12.2s1.4.7 8-.9c1.5-.3 2.5-.6 3.4-.4 0 0 .8.9-1 1.6-1.8.8-4.4 2.7-4.4 2.7l-4 .9c-.3 0-1.9.2-2.7-1.2s.7-2.7.7-2.7z"/></defs></svg>